<svg width="155" height="40" viewBox="0 0 155 40" fill="none" xmlns="http://www.w3.org/2000/svg">
<path d="M18.729 6.18463C12.9904 8.53252 8.42236 14.1445 2.28403 13.2569C1.99853 13.2283 1.71302 13.2856 1.48462 13.4001C2.65518 16.6356 5.73863 20.5869 13.6185 22.1331C26.4091 24.6241 22.1551 36.3922 25.5811 38.8833C28.1792 40.8017 39.2568 31.4101 40.4844 19.7566C40.2275 17.4659 39.5708 15.1467 38.3146 12.8561C34.0892 4.95342 24.8674 3.69358 18.729 6.18463Z" fill="#FFC11C"/>
<path d="M31.9763 28.4037C37.9433 28.4037 40.3987 22.6199 40.3987 22.6199C40.3987 22.6199 50.6768 26.0845 55.5875 17.3515L54.1314 16.6357C54.1314 16.6357 55.8159 9.93558 47.3079 8.24625V1.54617C47.3079 1.54617 33.6893 9.96421 29.4353 16.6643C28.8643 17.5519 28.379 18.4968 27.9793 19.4703C26.7516 24.1088 27.6938 28.4037 31.9763 28.4037Z" fill="#222728"/>
<path d="M26.4663 39.9997C25.9238 39.9997 25.467 39.8565 25.0958 39.5988C23.6969 38.568 23.3543 36.5351 22.9831 34.2159C22.2979 29.9209 21.4414 24.5666 13.4758 22.9918C8.62228 22.0469 4.99638 20.0999 2.6838 17.208C0.742372 14.7742 0.142814 12.2259 6.19684e-05 10.5079C-0.0570388 9.87799 0.199915 9.24806 0.656721 8.78994C1.14208 8.33181 1.77019 8.13138 2.39829 8.24592C6.05274 8.78994 9.19328 6.72838 12.5337 4.55229C14.3895 3.34971 16.3023 2.08987 18.4151 1.23088C21.8125 -0.14349 25.8381 -0.372552 29.464 0.629595C32.4047 1.43131 36.4589 3.43561 39.0855 8.30318C41.8264 13.4285 42.2261 19.2409 40.1704 25.1106C38.6287 29.5487 35.6024 34.0441 32.0907 37.1078C29.9209 38.9689 27.9223 39.9997 26.4663 39.9997ZM2.11279 9.90662C1.97004 9.90662 1.88439 9.96388 1.82729 10.0211C1.77019 10.0784 1.68453 10.1929 1.68453 10.3647C1.97004 13.6289 3.91146 19.3841 13.8184 21.3311C22.9546 23.1063 23.9538 29.3769 24.6676 33.9582C24.9816 35.9338 25.2386 37.6232 26.0951 38.2531C26.5519 38.5967 28.4362 38.0526 30.9772 35.8193C34.2605 32.956 37.1156 28.747 38.5716 24.538C39.8849 20.7871 40.77 15.0319 37.6009 9.1049C34.6317 3.6074 27.1515 -0.487084 19.0432 2.80569C17.1017 3.6074 15.246 4.80998 13.4473 5.98393C9.99269 8.24592 6.4239 10.5652 2.14134 9.93525C2.14134 9.90662 2.14134 9.90662 2.11279 9.90662Z" fill="#222728"/>
<path d="M31.1199 31.7824C29.0928 31.7824 27.5225 30.9234 26.6089 29.2627C24.953 26.2276 25.8095 20.7301 28.6646 16.2061C32.9757 9.39154 46.2516 1.17393 46.8226 0.801708C47.0796 0.629911 47.4222 0.629911 47.6791 0.773075C47.9361 0.916239 48.1074 1.20257 48.1074 1.51753V7.55905C50.8482 8.2176 52.8182 9.47744 53.9602 11.3099C55.1308 13.1711 55.1308 15.1467 55.0166 16.1489L56.1586 16.7215C56.5583 16.922 56.7296 17.3515 56.5868 17.7809C52.7325 28.461 42.7114 26.8575 39.9705 26.1704C39.0855 27.7738 36.3732 31.7824 31.1199 31.7824ZM46.4514 3.09233C42.9969 5.35432 33.461 11.854 30.1206 17.1224C27.6082 21.1024 26.7517 25.9699 28.0936 28.4323C28.6931 29.5204 29.6924 30.0644 31.1199 30.0644C36.4303 30.0644 38.6572 25.025 38.7714 24.796C38.9427 24.3951 39.3995 24.1947 39.8278 24.3379C39.8563 24.3379 42.7399 25.2827 46.0517 24.8532C50.163 24.3092 53.0751 21.9613 54.7596 17.8668L53.7603 17.3801C53.3892 17.2083 53.2179 16.8074 53.3035 16.4066C53.3035 16.3779 53.8174 14.1732 52.5612 12.1689C51.562 10.6228 49.7347 9.56334 47.1367 9.04795C46.737 8.96205 46.4514 8.61846 46.4514 8.2176V3.09233Z" fill="#222728"/>
<path d="M2.28398 9.07662C1.48457 8.96209 0.770814 9.64928 0.827915 10.451C0.885016 11.2527 1.08487 12.3121 1.48457 13.4288C1.68443 13.4002 1.88428 13.4002 2.11268 13.3715C5.96698 12.8275 5.90988 10.5369 5.36742 8.99072C4.39671 9.16252 3.3689 9.21979 2.28398 9.07662Z" fill="#222728"/>
<path d="M17.4729 8.30351C17.4158 8.30351 17.3587 8.30351 17.3016 8.27488C17.1018 8.18898 16.9876 7.93128 17.0732 7.73085C17.1018 7.67359 17.7013 6.29921 18.8719 6.18468C19.6713 6.09878 20.4422 6.58554 21.213 7.64495C21.3558 7.84538 21.2987 8.10308 21.1274 8.24624C20.9275 8.38941 20.6706 8.33214 20.5278 8.16034C20.1281 7.61632 19.5285 6.9864 18.9575 7.04367C18.3865 7.10093 17.9583 7.81675 17.8441 8.10308C17.787 8.21761 17.6157 8.30351 17.4729 8.30351Z" fill="#222728"/>
<path d="M51.5621 16.2061C52.0351 16.2061 52.4186 15.8344 52.4186 15.3758C52.4186 14.9172 52.0351 14.5454 51.5621 14.5454C51.089 14.5454 50.7056 14.9172 50.7056 15.3758C50.7056 15.8344 51.089 16.2061 51.5621 16.2061Z" fill="white"/>
<path d="M54.5884 16.8647C54.3314 17.2369 54.103 17.7237 54.103 18.2964C54.103 18.9549 54.5027 19.2412 55.0166 19.2985C55.3021 18.7258 55.5876 18.1246 55.816 17.4374L54.5884 16.8647Z" fill="#222728"/>
<path d="M65.6936 24.4152L65.6365 11.3873L73.2023 11.3587V14.222H69.0911L69.1196 24.3866L65.6936 24.4152Z" fill="#222728"/>
<path d="M77.9132 28.796H74.7441L74.687 15.5104H77.8561V16.4839C78.5413 15.6536 79.4549 15.2241 80.6255 15.2241C81.2821 15.2241 81.8817 15.3386 82.4242 15.5963C82.9666 15.854 83.452 16.169 83.8802 16.5985C84.2799 17.028 84.6225 17.5147 84.8509 18.0874C85.0793 18.66 85.1935 19.2899 85.1935 19.9485C85.1935 20.6071 85.0793 21.2083 84.8509 21.781C84.6225 22.3537 84.3085 22.8404 83.9088 23.2699C83.5091 23.6994 83.0237 24.043 82.4813 24.2721C81.9388 24.5297 81.3392 24.6443 80.6826 24.6443C79.5691 24.6443 78.627 24.2721 77.8846 23.499L77.9132 28.796ZM81.8817 19.9485C81.8817 19.6622 81.8246 19.4045 81.7389 19.1754C81.6533 18.9464 81.482 18.7173 81.3107 18.5169C81.1108 18.3451 80.911 18.1733 80.654 18.0874C80.3971 17.9728 80.1401 17.9156 79.8261 17.9156C79.5406 17.9156 79.2836 17.9728 79.0267 18.0874C78.7697 18.2019 78.5699 18.3451 78.3986 18.5169C78.2273 18.6887 78.0845 18.9177 77.9703 19.1754C77.8561 19.4331 77.799 19.6908 77.799 19.9485C77.799 20.2348 77.8561 20.4925 77.9703 20.7216C78.0845 20.9506 78.2273 21.1797 78.3986 21.3515C78.5984 21.5233 78.7983 21.6665 79.0552 21.781C79.3122 21.8955 79.5691 21.9528 79.8546 21.9528C80.1401 21.9528 80.3971 21.8955 80.654 21.781C80.911 21.6665 81.1108 21.5233 81.2821 21.3515C81.4534 21.1797 81.5962 20.9506 81.7104 20.7216C81.8246 20.4925 81.8817 20.2348 81.8817 19.9485Z" fill="#222728"/>
<path d="M89.8186 23.1267L85.4504 15.4818H89.1334L91.5602 20.0058L93.8728 15.4532H97.5272L90.3326 28.7674H86.7638L89.8186 23.1267Z" fill="#222728"/>
<path d="M103.352 24.3007L101.382 19.0895L100.525 24.3007H97.8413L99.5258 15.4245H102.152L104.037 20.2062L105.893 15.4245H108.519L110.261 24.2721H107.548L106.663 19.0609L104.722 24.2721L103.352 24.3007Z" fill="#222728"/>
<path d="M111.174 21.6951C111.231 21.6951 111.26 21.7237 111.346 21.7237C112.002 21.7237 112.345 21.2084 112.345 20.2062L112.316 11.2441L123.137 11.2155L123.194 24.2434H119.768L119.739 14.0788H115.771L115.799 20.2348C115.799 20.8934 115.714 21.4661 115.514 22.0101C115.314 22.5541 115.029 23.0122 114.657 23.3844C114.286 23.7853 113.829 24.0716 113.287 24.3007C112.745 24.5298 112.145 24.6157 111.488 24.6157H111.231L111.174 21.6951Z" fill="#222728"/>
<path d="M128.476 20.3208C128.476 21.6665 129.133 22.3537 130.417 22.325C131.103 22.325 131.617 22.0387 131.988 21.4947H135.071C134.472 23.5276 132.901 24.5298 130.417 24.5584C129.647 24.5584 128.961 24.4439 128.333 24.2148C127.705 23.9858 127.163 23.6708 126.706 23.2699C126.249 22.8691 125.906 22.3537 125.649 21.781C125.393 21.2084 125.278 20.5498 125.278 19.834C125.278 19.0895 125.393 18.431 125.621 17.8297C125.849 17.2284 126.192 16.7417 126.62 16.3122C127.048 15.8827 127.562 15.5677 128.19 15.3386C128.79 15.1096 129.504 14.9951 130.275 14.9951C131.045 14.9951 131.731 15.1096 132.33 15.3386C132.93 15.5677 133.444 15.8827 133.872 16.3122C134.3 16.7417 134.614 17.257 134.843 17.8583C135.071 18.4883 135.185 19.1754 135.185 19.9485V20.2635L128.476 20.3208ZM132.188 18.4883C132.073 18.0588 131.873 17.6865 131.531 17.4288C131.188 17.1711 130.817 17.028 130.332 17.028C129.846 17.028 129.447 17.1711 129.133 17.4002C128.819 17.6579 128.619 18.0015 128.562 18.4596L132.188 18.4883Z" fill="#222728"/>
<path d="M143.608 17.9156H141.495L141.523 24.1575H138.354L138.326 17.9156H136.213V15.31L143.608 15.2814V17.9156Z" fill="#222728"/>
<path d="M152.173 15.2814H155.37L155.399 24.1576H152.201V23.184C151.516 24.0144 150.602 24.4439 149.46 24.4439C148.804 24.4439 148.204 24.3294 147.662 24.1003C147.119 23.8712 146.634 23.5276 146.206 23.0981C145.806 22.6687 145.463 22.1819 145.235 21.6092C145.007 21.0366 144.892 20.4067 144.892 19.7195C144.892 19.0896 145.007 18.4883 145.206 17.9156C145.435 17.343 145.749 16.8562 146.12 16.4267C146.52 15.9972 146.977 15.6536 147.548 15.4246C148.09 15.1669 148.718 15.0523 149.375 15.0523C150.488 15.0523 151.43 15.4246 152.173 16.1976V15.2814ZM148.176 19.6908C148.176 19.9772 148.233 20.2349 148.347 20.4926C148.461 20.7503 148.604 20.9507 148.775 21.1511C148.946 21.3229 149.175 21.4661 149.432 21.5806C149.689 21.6951 149.946 21.7238 150.26 21.7238C150.545 21.7238 150.802 21.6665 151.059 21.552C151.316 21.4374 151.516 21.2943 151.716 21.1225C151.887 20.9507 152.03 20.7216 152.144 20.4926C152.258 20.2635 152.315 19.9772 152.315 19.7195C152.315 19.4332 152.258 19.1755 152.144 18.9464C152.03 18.6887 151.887 18.4883 151.716 18.2878C151.545 18.116 151.316 17.9729 151.059 17.8584C150.802 17.7438 150.545 17.7152 150.26 17.7152C149.974 17.7152 149.689 17.7725 149.432 17.887C149.175 18.0015 148.975 18.1447 148.775 18.3165C148.604 18.4883 148.461 18.7173 148.347 18.9464C148.233 19.1468 148.176 19.4045 148.176 19.6908Z" fill="#222728"/>
</svg>
