<svg width="57" height="40" viewBox="0 0 57 40" fill="none" xmlns="http://www.w3.org/2000/svg">
<path d="M18.729 6.18463C12.9904 8.53252 8.42236 14.1445 2.28403 13.2569C1.99853 13.2283 1.71302 13.2856 1.48462 13.4001C2.65518 16.6356 5.73863 20.5869 13.6185 22.1331C26.4091 24.6241 22.1551 36.3922 25.5811 38.8833C28.1792 40.8017 39.2568 31.4101 40.4844 19.7566C40.2275 17.466 39.5708 15.1467 38.3146 12.8561C34.0891 4.95342 24.8674 3.69358 18.729 6.18463Z" fill="#FFC11C"/>
<path d="M31.9763 28.4037C37.9433 28.4037 40.3987 22.6199 40.3987 22.6199C40.3987 22.6199 50.6768 26.0845 55.5875 17.3515L54.1314 16.6357C54.1314 16.6357 55.8159 9.93558 47.3079 8.24624V1.54617C47.3079 1.54617 33.6893 9.96421 29.4353 16.6643C28.8643 17.5519 28.379 18.4968 27.9793 19.4703C26.7516 24.1088 27.6938 28.4037 31.9763 28.4037Z" fill="#222728"/>
<path d="M26.4663 39.9997C25.9238 39.9997 25.467 39.8565 25.0958 39.5988C23.6969 38.568 23.3543 36.5351 22.9831 34.2159C22.2979 29.9209 21.4414 24.5666 13.4758 22.9918C8.62228 22.0469 4.99638 20.0999 2.6838 17.208C0.742372 14.7742 0.142814 12.2259 6.19683e-05 10.5079C-0.0570388 9.87799 0.199915 9.24806 0.656721 8.78994C1.14208 8.33181 1.77019 8.13138 2.39829 8.24592C6.05274 8.78994 9.19328 6.72838 12.5337 4.55229C14.3895 3.34971 16.3023 2.08987 18.4151 1.23088C21.8125 -0.14349 25.8382 -0.372552 29.464 0.629595C32.4047 1.43131 36.4589 3.43561 39.0855 8.30318C41.8264 13.4285 42.2261 19.2409 40.1704 25.1106C38.6287 29.5487 35.6024 34.0441 32.0907 37.1078C29.9209 38.9689 27.9223 39.9997 26.4663 39.9997ZM2.11279 9.90662C1.97004 9.90662 1.88439 9.96388 1.82729 10.0211C1.77019 10.0784 1.68453 10.1929 1.68453 10.3647C1.97004 13.6289 3.91146 19.3841 13.8184 21.3311C22.9546 23.1063 23.9538 29.3769 24.6676 33.9582C24.9816 35.9338 25.2386 37.6232 26.0951 38.2531C26.5519 38.5967 28.4362 38.0526 30.9772 35.8193C34.2605 32.956 37.1156 28.747 38.5716 24.538C39.8849 20.7871 40.77 15.0319 37.6009 9.1049C34.6317 3.6074 27.1515 -0.487084 19.0432 2.80569C17.1017 3.6074 15.246 4.80998 13.4473 5.98393C9.99269 8.24592 6.4239 10.5652 2.14134 9.93525C2.14134 9.90662 2.14134 9.90662 2.11279 9.90662Z" fill="#222728"/>
<path d="M31.1199 31.7824C29.0928 31.7824 27.5225 30.9234 26.6089 29.2627C24.953 26.2276 25.8095 20.7301 28.6646 16.2061C32.9757 9.39154 46.2516 1.17393 46.8226 0.801708C47.0796 0.629911 47.4222 0.629911 47.6791 0.773075C47.9361 0.916239 48.1074 1.20257 48.1074 1.51753V7.55905C50.8482 8.2176 52.8182 9.47744 53.9602 11.3099C55.1308 13.1711 55.1308 15.1467 55.0166 16.1489L56.1586 16.7215C56.5583 16.922 56.7296 17.3515 56.5868 17.781C52.7325 28.461 42.7113 26.8575 39.9705 26.1704C39.0855 27.7738 36.3732 31.7824 31.1199 31.7824ZM46.4514 3.09233C42.9969 5.35432 33.461 11.854 30.1206 17.1224C27.6082 21.1024 26.7517 25.9699 28.0936 28.4323C28.6931 29.5204 29.6924 30.0644 31.1199 30.0644C36.4303 30.0644 38.6572 25.025 38.7714 24.796C38.9427 24.3951 39.3995 24.1947 39.8278 24.3379C39.8563 24.3379 42.7399 25.2827 46.0517 24.8533C50.163 24.3092 53.0751 21.9613 54.7596 17.8668L53.7603 17.3801C53.3892 17.2083 53.2179 16.8074 53.3035 16.4066C53.3035 16.3779 53.8174 14.1732 52.5612 12.1689C51.562 10.6228 49.7347 9.56334 47.1367 9.04795C46.737 8.96205 46.4514 8.61846 46.4514 8.2176V3.09233Z" fill="#222728"/>
<path d="M2.28398 9.07662C1.48457 8.96209 0.770814 9.64928 0.827915 10.451C0.885016 11.2527 1.08487 12.3121 1.48457 13.4288C1.68443 13.4002 1.88428 13.4002 2.11268 13.3715C5.96698 12.8275 5.90988 10.5369 5.36742 8.99072C4.39671 9.16252 3.3689 9.21979 2.28398 9.07662Z" fill="#222728"/>
<path d="M17.4729 8.30351C17.4158 8.30351 17.3587 8.30351 17.3016 8.27488C17.1018 8.18898 16.9876 7.93128 17.0732 7.73085C17.1018 7.67359 17.7013 6.29921 18.8719 6.18468C19.6713 6.09878 20.4422 6.58554 21.213 7.64495C21.3558 7.84538 21.2987 8.10308 21.1274 8.24624C20.9275 8.38941 20.6706 8.33214 20.5278 8.16034C20.1281 7.61632 19.5285 6.9864 18.9575 7.04367C18.3865 7.10093 17.9583 7.81675 17.8441 8.10308C17.787 8.21761 17.6157 8.30351 17.4729 8.30351Z" fill="#222728"/>
<path d="M51.5621 16.2061C52.0351 16.2061 52.4186 15.8344 52.4186 15.3758C52.4186 14.9172 52.0351 14.5454 51.5621 14.5454C51.089 14.5454 50.7056 14.9172 50.7056 15.3758C50.7056 15.8344 51.089 16.2061 51.5621 16.2061Z" fill="white"/>
<path d="M54.5884 16.8647C54.3314 17.2369 54.103 17.7237 54.103 18.2964C54.103 18.9549 54.5027 19.2412 55.0166 19.2985C55.3021 18.7258 55.5876 18.1246 55.816 17.4374L54.5884 16.8647Z" fill="#222728"/>
</svg>
